<svg id="visual" viewBox="0 0 960 540" width="960" height="540" xmlns="http://www.w3.org/2000/svg" xmlns:xlink="http://www.w3.org/1999/xlink" version="1.1"><rect width="960" height="540" fill="#ffffff"></rect><g><g transform="translate(273 532)"><path d="M0 -175.5L112.8 -134.4L172.8 -30.5L152 87.7L60 164.9L-60 164.9L-152 87.7L-172.8 -30.5L-112.8 -134.4Z" fill="none" stroke="#3786e0" stroke-width="2"></path></g><g transform="translate(384 77)"><path d="M0 -152L97.7 -116.4L149.7 -26.4L131.6 76L52 142.8L-52 142.8L-131.6 76L-149.7 -26.4L-97.7 -116.4Z" fill="none" stroke="#3786e0" stroke-width="2"></path></g><g transform="translate(893 275)"><path d="M0 -161L103.5 -123.3L158.6 -28L139.4 80.5L55.1 151.3L-55.1 151.3L-139.4 80.5L-158.6 -28L-103.5 -123.3Z" fill="none" stroke="#3786e0" stroke-width="2"></path></g></g></svg>